HIERARCHY
ROOT root
{
	OFFSET 0.000000 0.000000 0.000000
	CHANNELS 6 Xposition Yposition Zposition Zrotation Yrotation Xrotation
	JOINT lhip
	{
		OFFSET 0.058581 -0.082280 -0.017664
		CHANNELS 3 Zrotation Yrotation Xrotation
		JOINT lknee
		{
			OFFSET 0.043451 -0.386469 0.008037
			CHANNELS 3 Zrotation Yrotation Xrotation
			JOINT lankle
			{
				OFFSET -0.014790 -0.426874 -0.037428
				CHANNELS 3 Zrotation Yrotation Xrotation
				JOINT ltoe
				{
					OFFSET 0.041054 -0.060286 0.122042
					CHANNELS 3 Zrotation Yrotation Xrotation
					End Site
					{
						OFFSET 0.000000 0.000000 0.000000
					}
				}
			}
		}
	}
	JOINT rhip
	{
		OFFSET -0.060310 -0.090513 -0.013543
		CHANNELS 3 Zrotation Yrotation Xrotation
		JOINT rknee
		{
			OFFSET -0.043257 -0.383688 -0.004843
			CHANNELS 3 Zrotation Yrotation Xrotation
			JOINT rankle
			{
				OFFSET 0.019056 -0.420046 -0.034562
				CHANNELS 3 Zrotation Yrotation Xrotation
				JOINT rtoe
				{
					OFFSET -0.034840 -0.062106 0.130323
					CHANNELS 3 Zrotation Yrotation Xrotation
					End Site
					{
						OFFSET 0.000000 0.000000 0.000000
					}
				}
			}
		}
	}
	JOINT lowerback
	{
		OFFSET 0.004439 0.124404 -0.038385
		CHANNELS 3 Zrotation Yrotation Xrotation
		JOINT upperback
		{
			OFFSET 0.004488 0.137956 0.026820
			CHANNELS 3 Zrotation Yrotation Xrotation
			JOINT chest
			{
				OFFSET -0.002265 0.056032 0.002855
				CHANNELS 3 Zrotation Yrotation Xrotation
				JOINT lowerneck
				{
					OFFSET -0.013390 0.211636 -0.033468
					CHANNELS 3 Zrotation Yrotation Xrotation
					JOINT upperneck
					{
						OFFSET 0.010113 0.088937 0.050410
						CHANNELS 3 Zrotation Yrotation Xrotation
						End Site
						{
							OFFSET 0.000000 0.000000 0.000000
						}
					}
				}
				JOINT lclavicle
				{
					OFFSET 0.071702 0.114000 -0.018898
					CHANNELS 3 Zrotation Yrotation Xrotation
					JOINT lshoulder
					{
						OFFSET 0.122921 0.045205 -0.019046
						CHANNELS 3 Zrotation Yrotation Xrotation
						JOINT lelbow
						{
							OFFSET 0.255332 -0.015649 -0.022946
							CHANNELS 3 Zrotation Yrotation Xrotation
							JOINT lwrist
							{
								OFFSET 0.265709 0.012698 -0.007375
								CHANNELS 3 Zrotation Yrotation Xrotation
								End Site
								{
									OFFSET 0.000000 0.000000 0.000000
								}
							}
						}
					}
				}
				JOINT rclavicle
				{
					OFFSET -0.082954 0.112472 -0.023707
					CHANNELS 3 Zrotation Yrotation Xrotation
					JOINT rshoulder
					{
						OFFSET -0.113228 0.046853 -0.008472
						CHANNELS 3 Zrotation Yrotation Xrotation
						JOINT relbow
						{
							OFFSET -0.260127 -0.014369 -0.031269
							CHANNELS 3 Zrotation Yrotation Xrotation
							JOINT rwrist
							{
								OFFSET -0.269108 0.006794 -0.006027
								CHANNELS 3 Zrotation Yrotation Xrotation
								End Site
								{
									OFFSET 0.000000 0.000000 0.000000
								}
							}
						}
					}
				}
			}
		}
	}
}
MOTION
Frames: 5
Frame Time: 0.033333
-1.815683 0.757346 0.948010 91.878695 -11.599224 93.016249 3.681926 7.948082 -19.871327 -16.924856 0.532665 31.343848 -5.773558 3.994670 -8.454345 0.000000 -0.000000 0.000000 -15.384274 -7.756424 -29.939346 3.404627 9.389884 44.715397 7.554810 -9.227298 -25.394380 0.000000 -0.000000 0.000000 -2.470302 -4.523156 24.414861 -7.170004 -4.127467 -12.424164 -6.156737 -0.162672 -3.196038 -6.331326 -7.466889 -14.062824 -0.470335 -9.514813 2.578110 4.238581 -6.355432 -16.585169 15.944868 -11.388730 -16.473829 36.535327 -50.849649 -39.831938 0.575475 -23.005930 -5.010073 -9.860375 12.508332 -18.701091 -22.929004 15.099355 -23.722601 -21.285397 34.032277 -29.333293 28.514555 8.414737 -5.285476 
-1.817130 0.742986 0.944951 93.657241 -12.606832 92.542850 3.866988 7.663397 -20.923042 -17.445093 0.282517 32.583075 -6.161674 3.166425 -6.809904 0.000000 -0.000000 0.000000 -15.482312 -8.243006 -30.302878 3.381995 9.053442 46.719178 6.764373 -9.882709 -26.831813 0.000000 -0.000000 0.000000 -2.768151 -4.449549 24.859381 -7.710049 -4.406047 -12.572686 -6.646465 0.002430 -3.413239 -6.609261 -6.313135 -13.625930 -0.054940 -8.120020 3.132292 3.708928 -7.070833 -16.304821 15.951822 -11.464202 -16.428842 38.730363 -51.619931 -41.707030 2.444793 -23.051812 -5.560192 -9.506889 12.567003 -18.010031 -22.902364 13.818307 -23.332076 -23.296597 35.288699 -29.112492 27.719919 8.163384 -3.416981 
-1.817557 0.728551 0.942031 95.872054 -13.228530 91.531370 4.334647 7.371490 -21.485642 -17.684370 -0.178380 33.830869 -6.786283 2.345942 -5.051809 0.000000 -0.000000 0.000000 -15.473032 -8.803947 -29.633415 3.267994 8.247334 48.057167 5.946470 -10.606178 -28.558286 0.000000 -0.000000 0.000000 -2.648273 -4.520507 25.598521 -8.103110 -4.679982 -12.287170 -6.980103 -0.175220 -3.423412 -7.208526 -4.906107 -13.375005 0.300110 -6.118151 2.882325 2.912063 -7.389927 -16.490965 15.719496 -11.469939 -16.395595 41.154543 -52.821372 -43.358691 4.096110 -22.978989 -6.646899 -9.418130 12.466215 -17.822030 -22.992524 12.735668 -22.823243 -24.738807 36.905401 -28.775969 26.349629 7.820940 -1.859742 
-1.818500 0.713638 0.939031 97.893936 -13.875767 90.973753 4.733964 7.231900 -22.446229 -18.132618 -0.436189 34.782539 -7.408665 1.661265 -3.543687 0.000000 -0.000000 0.000000 -15.380829 -9.429846 -29.637134 3.417790 7.624566 49.476661 5.340953 -11.458267 -29.994908 0.000000 -0.000000 0.000000 -2.723590 -4.398598 25.979994 -8.432067 -4.802505 -12.402393 -7.228556 -0.268764 -3.336788 -7.511492 -3.879016 -13.331777 0.302684 -4.697771 3.011286 2.082575 -7.735836 -16.307687 15.678513 -11.595613 -16.288743 43.094635 -53.868520 -44.712597 6.176463 -23.036294 -7.136370 -9.022948 12.235883 -17.147070 -23.245610 11.735844 -22.318128 -26.185387 38.460556 -28.673977 24.455405 7.884605 -0.358373 
-1.819895 0.699404 0.935920 100.160434 -14.413482 90.452439 5.029009 6.980740 -24.043470 -18.221198 -0.521711 36.312250 -8.007758 0.915603 -1.659113 0.000000 -0.000000 0.000000 -15.342071 -10.370656 -29.639023 3.486159 6.733838 50.676844 4.808164 -11.924141 -31.123062 0.000000 -0.000000 0.000000 -2.747212 -4.261509 26.288163 -8.579432 -5.068958 -12.372123 -7.433722 -0.258889 -3.207244 -7.884293 -2.173216 -12.920144 0.564070 -2.873419 2.907328 1.229352 -7.975382 -16.397571 15.689719 -11.824262 -16.018623 44.940116 -55.001430 -45.944763 7.611701 -23.063111 -7.888821 -8.385462 11.804918 -16.529236 -23.601406 11.150443 -22.082838 -28.236348 39.591955 -29.420171 22.823753 7.898305 1.424402 
